<svg width="245" height="93" viewBox="0 0 245 93" fill="none" xmlns="http://www.w3.org/2000/svg">
<path d="M30.1235 48.7334C33.6168 48.7334 37.5163 48.5704 41.822 48.2445C46.1684 47.9185 50.3116 47.3277 54.2517 46.472C58.2325 45.5756 61.8274 44.4551 65.0363 43.1105C68.2453 41.7659 70.52 40.5435 71.8605 39.4433C73.201 38.3024 74.2774 37.0393 75.0898 35.654C75.9022 34.2686 76.4302 33.5759 76.674 33.5759C76.9989 33.5759 77.1208 34.0445 77.0395 34.9816C76.8771 36.2855 76.349 38.0376 75.4554 40.2379C74.2774 43.0494 73.0994 45.2904 71.9214 46.961C70.7841 48.6316 69.3827 50.0577 67.7173 51.2393C65.3613 52.8284 62.7007 54.2953 59.7354 55.6399C57.1358 56.6993 54.2924 57.6568 51.2052 58.5125C46.4933 59.7349 41.8424 60.6313 37.2523 61.2017C32.6622 61.7314 28.2144 61.9963 23.9086 61.9963C18.9124 61.9963 15.0941 61.7925 12.4538 61.3851C8.10748 60.6924 5.02036 59.3885 3.19246 57.4735C1.52705 55.9659 0.694336 53.9286 0.694336 51.3616C0.694336 50.3429 0.836506 48.8964 1.12085 47.0221C1.40519 45.1478 1.73014 43.2735 2.09572 41.3991C2.50192 39.5248 2.80657 38.3024 3.00967 37.732C3.21277 37.1208 3.51742 36.8152 3.92362 36.8152C4.32982 36.8152 4.57354 37.1819 4.65478 37.9154C4.77664 38.608 4.8985 39.7286 5.02036 41.2769C5.14222 42.8253 6.3202 44.231 8.5543 45.4941C12.9006 47.5722 20.0904 48.6519 30.1235 48.7334ZM25.371 78.9637C25.371 78.0673 26.1224 76.1114 27.6254 73.0962C29.1689 70.1218 30.1641 68.6345 30.6109 68.6345C31.5046 68.2678 32.8044 68.9401 34.5104 70.6515C36.2165 72.4035 37.1304 73.7685 37.2523 74.7464C37.2523 76.0503 36.5414 77.9246 35.1197 80.3694C33.698 82.8142 32.6622 84.0365 32.0123 84.0365C31.7686 83.9143 30.9156 83.3642 29.4533 82.3863C28.0316 81.4492 26.9754 80.7361 26.2849 80.2472C25.6756 79.8397 25.371 79.4119 25.371 78.9637Z" fill="#4763E4"/>
<path d="M90.2632 57.0968C88.8415 61.0492 87.5213 63.9625 86.3027 65.8368C85.0841 67.7112 84.1296 68.8724 83.439 69.3206C82.7485 69.7688 81.7127 70.2578 80.3316 70.7875C78.9505 71.2764 76.8383 71.9895 73.9949 72.9267C71.1921 73.8231 69.5267 74.2713 68.9986 74.2713C68.6737 74.2713 68.5112 74.1898 68.5112 74.0268C68.1862 73.5786 69.872 72.1117 73.5684 69.6262C77.2648 67.1407 79.6411 65.5109 80.6972 64.7367C81.7939 63.9625 82.8906 62.842 83.9874 61.3751C85.1247 59.8675 85.9575 58.1766 86.4855 56.3023C85.9168 56.2208 85.3278 56.343 84.7185 56.669C84.1499 56.9542 83.5812 57.0968 83.0125 57.0968C81.5096 57.0561 80.2504 56.5671 79.2348 55.63C78.2194 54.6928 77.7928 53.6538 77.9553 52.5129C78.1178 51.8202 78.3412 51.0257 78.6255 50.1292C78.9505 49.1921 79.6004 47.7252 80.5753 45.7287C81.5502 43.7321 82.5251 42.0819 83.4999 40.778C84.5154 39.4742 85.5106 38.8222 86.4855 38.8222C88.1509 38.8222 89.532 39.5353 90.6287 40.9614C91.7661 42.3875 92.3348 44.0988 92.3348 46.0954C92.3348 47.114 92.2739 48.1327 92.152 49.1513C92.0301 50.1292 91.888 50.9645 91.7255 51.6572C91.6036 52.3092 91.4005 53.1648 91.1162 54.2242C90.8725 55.2429 90.5881 56.2004 90.2632 57.0968Z" fill="#4763E4"/>
<path d="M89.6539 52.68C89.4914 52.1096 89.4101 51.2743 89.4101 50.1741C89.4101 48.9518 89.5523 47.9535 89.8367 47.1793C90.121 46.3236 90.6491 45.5698 91.4208 44.9179C93.005 43.6955 94.9142 41.9027 97.1482 39.5394C99.1792 37.2984 100.337 35.8315 100.621 35.1389C99.0777 34.3647 97.92 33.7535 97.1482 33.3053C94.5079 32.0422 92.416 31.4106 90.8725 31.4106C89.532 31.4106 88.2525 32.1237 87.0339 33.5498C85.7747 35.0166 85.0232 35.6686 84.7795 35.5056C84.292 35.3833 84.1702 34.9555 84.4139 34.2221C84.7389 33.4072 85.3888 32.2255 86.3636 30.6772C87.3385 29.1288 87.9275 28.212 88.1306 27.9268C89.5929 26.2562 91.1771 25.4209 92.8831 25.4209C93.9799 25.4209 95.7266 25.9099 98.1231 26.8878C100.479 27.9064 102.612 28.4158 104.521 28.4158C107.865 28.3269 107.865 27.3827 108.39 27.01C108.673 26.8099 111.142 27.7638 110.979 28.1713C110.614 29.1492 110.309 29.9641 110.065 30.6161C109.862 31.2272 109.7 31.6958 109.578 32.0218C108.887 33.6516 108.319 34.6907 107.872 35.1389C107.141 35.3018 106.349 35.8112 105.496 36.6668L99.2199 43.5122L92.7613 50.5409L91.0553 52.5578C90.9334 52.6393 90.4663 52.68 89.6539 52.68ZM93.7971 13.1186C93.7971 12.2221 94.5486 10.2867 96.0515 7.31224C97.5951 4.29704 98.5903 2.78943 99.0371 2.78943C99.9307 2.42272 101.231 3.1154 102.937 4.86748C104.643 6.57881 105.557 7.92343 105.678 8.90134C105.678 10.2052 104.968 12.0795 103.546 14.5243C102.124 16.9691 101.088 18.1914 100.438 18.1914C100.195 18.0692 99.3417 17.5395 97.8794 16.6023C96.4577 15.6244 95.4016 14.891 94.7111 14.4021C94.1018 13.9946 93.7971 13.5668 93.7971 13.1186Z" fill="#4763E4"/>
<path d="M117.689 51.1121C116.836 52.1715 116.105 52.9253 115.496 53.3736C114.683 53.944 113.85 54.4126 112.997 54.7793C112.185 55.1053 111.271 55.3701 110.256 55.5738C109.281 55.8183 108.306 56.0628 107.331 56.3073L103.31 57.2852C101.685 57.5704 100.69 57.6111 100.324 57.4074C100.324 56.837 100.994 56.1239 102.335 55.2682C103.553 54.4941 104.792 53.7199 106.051 52.9457C107.311 52.1308 108.57 51.3363 109.829 50.5621C113.038 48.321 115.435 46.2226 117.019 44.2668C118.237 42.7592 119.192 41.435 119.882 40.2941C120.329 39.6421 121 38.5216 121.893 36.9325L124.513 31.5541C125.122 30.2909 125.711 29.2723 126.28 28.4981C126.808 27.7239 127.296 27.3572 127.742 27.398C128.149 27.6017 128.271 28.0091 128.108 28.6203C127.661 29.965 127.377 30.841 127.255 31.2485C126.605 33.408 126.28 34.9156 126.28 35.7713C126.036 36.5047 125.874 36.9733 125.793 37.177C124.818 39.3773 123.802 41.4553 122.746 43.4111C122.421 44.1853 120.736 46.7523 117.689 51.1121Z" fill="#4763E4"/>
<path d="M120.979 42.0665C121.792 38.5624 122.726 35.975 123.782 34.3044C124.798 32.6338 125.63 31.717 126.28 31.5541V34.2433C126.28 37.666 127.194 40.0496 129.022 41.3942C130.119 42.1277 131.215 42.3721 132.312 42.1276C133.409 41.8832 134.242 41.3127 134.81 40.4163C135.42 39.5199 135.927 38.4809 136.334 37.2992C136.74 36.0769 137.126 35.4657 137.491 35.4657C137.938 35.4657 138.121 35.8935 138.04 36.7492C137.999 38.216 137.532 40.5997 136.638 43.9001C135.785 47.2005 134.607 49.9101 133.104 52.0289C131.601 54.1477 129.773 55.2682 127.621 55.3905C125.427 55.309 123.721 54.0662 122.502 51.6622C121.406 49.299 120.898 46.243 120.979 42.4944V42.0665ZM114.837 87.9158C114.837 87.3861 115.67 85.5525 117.336 82.4151C119.001 79.2776 120.017 77.7089 120.382 77.7089C121.073 77.4237 122.068 77.9126 123.368 79.1758C124.708 80.4796 125.724 81.6205 126.414 82.5984C127.227 81.2538 128.12 79.7462 129.095 78.0756C130.111 76.405 130.781 75.5697 131.106 75.5697C132.121 75.5697 133.32 76.3032 134.701 77.77C136.122 79.2776 136.874 80.6833 136.955 81.9872C136.955 83.5356 136.204 85.3691 134.701 87.4879C133.238 89.566 132.162 90.605 131.471 90.605C131.025 90.605 130.212 90.0142 129.034 88.8326C127.856 87.6509 126.82 86.7341 125.927 86.0822C123.733 90.5235 121.987 92.7442 120.687 92.7442C120.362 92.7442 119.895 92.4793 119.285 91.9496C118.717 91.4607 117.843 90.7272 116.665 89.7493C115.447 88.7714 114.837 88.1602 114.837 87.9158Z" fill="#4763E4"/>
<path d="M160.908 42.6303C160.258 43.7305 159.811 44.525 159.568 45.014C158.877 46.1548 158.166 47.0716 157.435 47.7643C156.582 48.62 155.465 49.3738 154.084 50.0257C151.119 51.4518 148.986 52.8372 147.686 54.1818C146.833 55.0375 145.838 56.6062 144.701 58.888C142.629 63.0848 140.598 65.8759 138.608 67.2613C136.618 68.6874 133.043 69.706 127.884 70.3172C127.478 70.3987 126.991 70.4395 126.422 70.4395H125.021C124.289 70.4395 123.924 70.358 123.924 70.195C123.924 69.2578 125.163 67.9947 127.641 66.4056C129.59 65.224 131.053 64.3479 132.027 63.7775C134.952 62.1069 137.105 60.7827 138.486 59.8048C140.436 58.3786 141.715 56.9933 142.325 55.6487C144.356 51.4926 146.041 48.5996 147.382 46.9698C148.885 45.1769 150.611 43.7916 152.561 42.8137C155.689 41.0616 157.496 40.0226 157.984 39.6966L162.858 40.8579L160.908 42.6303Z" fill="#4763E4"/>
<path d="M164.32 38.831C163.833 39.6866 163.305 40.5423 162.736 41.3979C162.208 42.2129 161.66 43.0074 161.091 43.7816C160.522 44.5558 159.954 45.2688 159.385 45.9208C158.857 46.5319 158.39 47.0413 157.984 47.4487C157.74 46.1856 157.577 44.9429 157.496 43.7205C157.415 42.4981 157.577 41.2553 157.984 39.9922C158.593 39.6255 159.06 39.2995 159.385 39.0143C160.197 38.2809 162.005 35.7954 164.808 31.5578C164.483 31.2318 163.549 30.7836 162.005 30.2132C160.461 29.602 158.999 29.2556 157.618 29.1741C156.359 29.0926 155.323 29.3371 154.511 29.9076C153.658 30.4373 152.906 31.2114 152.256 32.2301C151.566 33.208 150.977 33.6562 150.489 33.5747C150.327 33.4932 150.306 33.1673 150.428 32.5968C150.55 31.9856 150.733 31.3948 150.977 30.8244C151.992 28.4611 153.17 26.709 154.511 25.5681C155.81 24.3865 157.374 23.7957 159.202 23.7957C160.543 23.7957 162.208 24.1216 164.198 24.7736C165.458 25.2218 166.534 25.4459 167.428 25.4459C169.296 25.4459 171.144 24.7736 172.972 23.4289C173.379 23.4289 173.521 23.6938 173.399 24.2235C173.277 24.7532 173.094 25.3848 172.851 26.1182C172.647 26.8109 172.505 27.2794 172.424 27.5239C172.018 28.7871 171.693 29.5205 171.449 29.7242C171.205 29.9279 170.495 30.4576 169.317 31.3133C168.667 31.8023 168.098 32.3727 167.611 33.0246C167.164 33.6358 166.697 34.3896 166.209 35.286C165.722 36.1417 165.092 37.3233 164.32 38.831ZM158.885 10.4243C158.885 9.52791 159.637 7.59248 161.14 4.61802C162.683 1.60281 163.678 0.0952046 164.125 0.0952046C165.019 -0.27151 166.319 0.421174 168.025 2.17325C169.731 3.88459 170.645 5.22921 170.766 6.20711C170.766 7.51098 170.056 9.3853 168.634 11.8301C167.212 14.2748 166.176 15.4972 165.526 15.4972C165.283 15.375 164.43 14.8453 162.967 13.9081C161.546 12.9302 160.49 12.1968 159.799 11.7078C159.19 11.3004 158.885 10.8725 158.885 10.4243Z" fill="#4763E4"/>
<path d="M162.416 77.0204C163.188 76.3277 164.142 75.7165 165.28 75.1868C166.214 74.6979 167.169 74.4737 168.143 74.5145C169.687 74.7997 170.987 74.9423 172.043 74.9423C173.343 75.0238 174.48 74.8201 175.455 74.3311C176.389 73.9237 177.141 73.231 177.709 72.2531C177.953 71.8864 178.197 71.5197 178.441 71.1529C178.725 70.7455 179.07 70.2565 179.476 69.6861C179.923 69.0749 180.289 68.7693 180.573 68.7693C180.939 68.7693 181.122 69.0953 181.122 69.7472C181.122 71.2956 180.208 73.8422 178.38 77.3871C177.405 79.4651 176.349 81.1765 175.211 82.5211C173.546 84.4362 171.637 85.7808 169.484 86.5549C168.915 86.7994 168.042 86.9217 166.864 86.9217C166.62 86.9217 165.848 86.8402 164.549 86.6772C163.614 86.5142 162.863 86.4327 162.294 86.4327C160.548 86.4327 158.862 87.1254 157.237 88.5108C156.912 88.8367 156.323 89.3257 155.47 89.9776C154.942 90.4258 154.495 90.6092 154.13 90.5277C153.723 90.3647 153.744 89.6516 154.191 88.3885C154.637 87.2476 155.267 86.0049 156.079 84.6603C157.217 82.9897 158.313 81.5024 159.37 80.1986C160.304 78.9762 161.319 77.9168 162.416 77.0204ZM166.87 57.4673C166.87 56.5709 167.622 54.6354 169.125 51.661C170.668 48.6458 171.663 47.1381 172.11 47.1381C173.004 46.7714 174.304 47.4641 176.01 49.2162C177.716 50.9275 178.63 52.2721 178.751 53.2501C178.751 54.5539 178.041 56.4282 176.619 58.873C175.197 61.3178 174.161 62.5401 173.512 62.5401C173.268 62.4179 172.415 61.8882 170.952 60.9511C169.531 59.9732 168.475 59.2397 167.784 58.7508C167.175 58.3433 166.87 57.9155 166.87 57.4673Z" fill="#4763E4"/>
<path d="M190.931 64.002C190.85 65.5504 190.688 66.9561 190.444 68.2192C190.2 69.4416 189.875 70.501 189.469 71.3974C189.063 72.2531 188.535 72.905 187.885 73.3532C187.275 73.7607 186.524 73.9033 185.63 73.7811C185.671 70.6029 185.996 66.1819 186.605 60.5182C187.255 54.8138 188.21 48.5185 189.469 41.6324C190.119 39.6359 191.439 36.1114 193.429 31.0589C193.632 30.5699 193.836 30.3662 194.039 30.4477C194.282 30.5292 194.404 30.7329 194.404 31.0589C194.282 33.5444 193.775 38.2913 192.881 45.2996C191.987 52.3079 191.439 57.1159 191.236 59.7237C191.033 62.3314 190.931 63.7575 190.931 64.002Z" fill="#4763E4"/>
<path d="M190.931 66.1412C190.931 68.8304 191.48 70.8474 192.576 72.192C193.592 73.5773 194.79 74.27 196.171 74.27C196.415 74.2293 196.821 73.2106 197.39 71.2141C197.999 69.2583 198.507 68.0766 198.913 67.6692C199.888 67.3024 200.7 67.7303 201.35 68.9527C201.96 70.2565 202.305 71.3159 202.386 72.1309C202.386 75.1868 201.736 78.202 200.436 81.1765C198.608 85.0881 196.151 87.0439 193.064 87.0439C191.317 87.0439 189.814 86.3512 188.555 84.9659C187.296 83.5805 186.504 82.0525 186.179 80.3819C185.854 78.6298 185.691 76.4296 185.691 73.7811C185.691 72.6809 185.874 71.5197 186.24 70.2973C186.565 69.0749 186.991 67.9748 187.519 66.9969C188.047 66.019 188.636 65.2448 189.286 64.6743C189.895 64.1039 190.444 63.9002 190.931 64.0631V66.1412Z" fill="#4763E4"/>
<path d="M212.866 64.002C212.785 65.5504 212.622 66.9561 212.379 68.2192C212.135 69.4416 211.81 70.501 211.404 71.3974C210.998 72.2531 210.469 72.905 209.82 73.3532C209.21 73.7607 208.459 73.9033 207.565 73.7811C207.606 70.6029 207.931 66.1819 208.54 60.5182C209.19 54.8138 210.145 48.5185 211.404 41.6324C212.054 39.6359 213.374 36.1114 215.364 31.0589C215.567 30.5699 215.77 30.3662 215.973 30.4477C216.217 30.5292 216.339 30.7329 216.339 31.0589C216.217 33.5444 215.709 38.2913 214.816 45.2996C213.922 52.3079 213.374 57.1159 213.171 59.7237C212.968 62.3314 212.866 63.7575 212.866 64.002Z" fill="#4763E4"/>
<path d="M212.866 64.0631C212.866 65.53 212.886 66.6098 212.927 67.3025C212.927 68.3211 213.15 69.625 213.597 71.2141C214.085 72.4772 214.897 73.5162 216.034 74.3311C217.131 75.1461 218.593 75.5535 220.421 75.5535C222.94 75.5535 224.93 74.8608 226.393 73.4755C228.342 71.6419 229.662 70.5825 230.353 70.2973C230.8 70.0936 231.307 70.0528 231.876 70.175C232.485 70.2973 233.115 70.338 233.765 70.2973C234.496 70.2973 235.187 69.462 235.837 67.7914C236.487 66.1208 236.933 65.2244 237.177 65.1022C237.421 64.9392 237.705 64.8984 238.03 64.9799C238.964 65.3059 239.614 65.4689 239.98 65.4689C240.67 65.4689 241.28 65.0003 241.808 64.0631C242.011 63.7372 242.356 62.8815 242.844 61.4961C243.25 60.3145 243.575 59.7237 243.818 59.7237C244.143 59.7237 244.306 60.0904 244.306 60.8238C244.306 63.5946 243.514 66.2838 241.93 68.8915C240.264 71.4993 238.578 72.8032 236.872 72.8032C235.776 74.3923 235.146 75.2683 234.984 75.4313C233.887 76.6944 232.892 77.326 231.998 77.326C231.104 77.163 230.353 77.0815 229.744 77.0815C229.175 77.0815 228.545 77.2445 227.855 77.5704C227.042 77.8964 225.499 79.567 223.224 82.5822C220.949 85.5567 218.492 87.0439 215.852 87.0439C212.968 87.0439 210.855 85.7604 209.515 83.1934C208.256 80.6671 207.626 77.5501 207.626 73.8422C208.317 70.827 209.068 68.3822 209.88 66.5079C210.652 64.5521 211.424 63.5742 212.196 63.5742C212.358 63.5742 212.582 63.7372 212.866 64.0631Z" fill="#4763E4"/>
</svg>
